<mxfile host="app.diagrams.net" agent="Mozilla/5.0 (Windows NT 10.0; Win64; x64) AppleWebKit/537.36 (KHTML, like Gecko) Chrome/124.0.0.0 Safari/537.36" version="27.0.9">
  <diagram name="Page-1" id="Kadla1Wodx2_WjePzzAx">
    <mxGraphModel grid="1" page="1" gridSize="10" guides="1" tooltips="1" connect="1" arrows="1" fold="1" pageScale="1" pageWidth="827" pageHeight="1169" math="0" shadow="0">
      <root>
        <mxCell id="0" />
        <mxCell id="1" parent="0" />
        <mxCell id="V2c5M10AFD95ZUrolOOv-8" value="" style="rounded=0;whiteSpace=wrap;html=1;fillColor=#fff2cc;strokeColor=#d6b656;" vertex="1" parent="1">
          <mxGeometry x="390" y="260" width="360" height="400" as="geometry" />
        </mxCell>
        <mxCell id="i38Q_EET_aaeyMdn4X0I-3" value="" style="rounded=0;whiteSpace=wrap;html=1;fillColor=#cce5ff;strokeColor=#36393d;" vertex="1" parent="1">
          <mxGeometry x="421" y="40" width="300" height="200" as="geometry" />
        </mxCell>
        <mxCell id="i38Q_EET_aaeyMdn4X0I-2" value="" style="group;fillColor=#cce5ff;strokeColor=#36393d;labelBackgroundColor=default;" connectable="0" vertex="1" parent="1">
          <mxGeometry x="40" y="40" width="300" height="290" as="geometry" />
        </mxCell>
        <mxCell id="WTwV29aAdjjrVm4lncX9-33" value="&amp;nbsp;Linear Algebra Quiz" style="text;html=1;align=left;verticalAlign=middle;whiteSpace=wrap;rounded=0;" vertex="1" parent="i38Q_EET_aaeyMdn4X0I-2">
          <mxGeometry width="300" height="30" as="geometry" />
        </mxCell>
        <mxCell id="WTwV29aAdjjrVm4lncX9-34" value="" style="ellipse;whiteSpace=wrap;html=1;aspect=fixed;" vertex="1" parent="i38Q_EET_aaeyMdn4X0I-2">
          <mxGeometry x="279.375" y="2" width="18.18181818181818" height="18.18181818181818" as="geometry" />
        </mxCell>
        <mxCell id="WTwV29aAdjjrVm4lncX9-35" value="" style="ellipse;whiteSpace=wrap;html=1;aspect=fixed;" vertex="1" parent="i38Q_EET_aaeyMdn4X0I-2">
          <mxGeometry x="257.8125" y="2" width="18.18181818181818" height="18.18181818181818" as="geometry" />
        </mxCell>
        <mxCell id="WTwV29aAdjjrVm4lncX9-36" value="" style="ellipse;whiteSpace=wrap;html=1;aspect=fixed;" vertex="1" parent="i38Q_EET_aaeyMdn4X0I-2">
          <mxGeometry x="236.25" y="2" width="18.18181818181818" height="18.18181818181818" as="geometry" />
        </mxCell>
        <mxCell id="WTwV29aAdjjrVm4lncX9-38" value="&lt;b&gt;Select a level&lt;/b&gt;" style="text;html=1;align=center;verticalAlign=middle;whiteSpace=wrap;rounded=0;fontSize=16;" vertex="1" parent="i38Q_EET_aaeyMdn4X0I-2">
          <mxGeometry x="10.78125" y="70" width="278.4375" height="40" as="geometry" />
        </mxCell>
        <mxCell id="WTwV29aAdjjrVm4lncX9-41" value="&lt;font style=&quot;color: rgb(0, 0, 0); font-size: 20px;&quot;&gt;MEDIUM&lt;/font&gt;" style="rounded=1;whiteSpace=wrap;html=1;fillColor=#95FF9C;strokeColor=#2D7600;fontColor=#ffffff;fontStyle=1" vertex="1" parent="i38Q_EET_aaeyMdn4X0I-2">
          <mxGeometry x="18.75" y="180" width="262.5" height="35" as="geometry" />
        </mxCell>
        <mxCell id="WTwV29aAdjjrVm4lncX9-42" value="&lt;font style=&quot;color: rgb(0, 0, 0); font-size: 20px;&quot;&gt;&lt;b&gt;HARD&lt;/b&gt;&lt;/font&gt;" style="rounded=1;whiteSpace=wrap;html=1;fillColor=#FF7171;strokeColor=#B20000;fontColor=#ffffff;" vertex="1" parent="i38Q_EET_aaeyMdn4X0I-2">
          <mxGeometry x="18.75" y="230" width="262.5" height="35" as="geometry" />
        </mxCell>
        <mxCell id="WTwV29aAdjjrVm4lncX9-43" value="&lt;font style=&quot;font-size: 20px;&quot;&gt;&lt;b style=&quot;&quot;&gt;&lt;font style=&quot;&quot;&gt;EASY&lt;/font&gt;&lt;/b&gt;&lt;/font&gt;" style="rounded=1;whiteSpace=wrap;html=1;fillColor=#FFFB92;fontColor=#000000;strokeColor=#B09500;verticalAlign=middle;" vertex="1" parent="i38Q_EET_aaeyMdn4X0I-2">
          <mxGeometry x="18.75" y="125" width="262.5" height="35" as="geometry" />
        </mxCell>
        <mxCell id="i38Q_EET_aaeyMdn4X0I-1" value="Linear Algebra Quiz" style="text;strokeColor=none;fillColor=none;html=1;align=center;verticalAlign=middle;whiteSpace=wrap;rounded=0;fontSize=18;fontStyle=1" vertex="1" parent="i38Q_EET_aaeyMdn4X0I-2">
          <mxGeometry x="28.125" y="30" width="243.75" height="30" as="geometry" />
        </mxCell>
        <mxCell id="i38Q_EET_aaeyMdn4X0I-11" value="" style="ellipse;whiteSpace=wrap;html=1;aspect=fixed;" vertex="1" parent="i38Q_EET_aaeyMdn4X0I-2">
          <mxGeometry x="614.25" y="2" width="18.18181818181818" height="18.18181818181818" as="geometry" />
        </mxCell>
        <mxCell id="i38Q_EET_aaeyMdn4X0I-12" value="" style="ellipse;whiteSpace=wrap;html=1;aspect=fixed;" vertex="1" parent="i38Q_EET_aaeyMdn4X0I-2">
          <mxGeometry x="635.8125" y="2" width="18.18181818181818" height="18.18181818181818" as="geometry" />
        </mxCell>
        <mxCell id="i38Q_EET_aaeyMdn4X0I-13" value="" style="ellipse;whiteSpace=wrap;html=1;aspect=fixed;" vertex="1" parent="i38Q_EET_aaeyMdn4X0I-2">
          <mxGeometry x="657.375" y="2" width="18.18181818181818" height="18.18181818181818" as="geometry" />
        </mxCell>
        <mxCell id="i38Q_EET_aaeyMdn4X0I-4" value="&amp;nbsp;Linear Algebra Quiz" style="text;html=1;align=left;verticalAlign=middle;whiteSpace=wrap;rounded=0;" vertex="1" parent="1">
          <mxGeometry x="421" y="40" width="307" height="30" as="geometry" />
        </mxCell>
        <mxCell id="i38Q_EET_aaeyMdn4X0I-16" value="START" style="rounded=1;whiteSpace=wrap;html=1;fontStyle=1;fontSize=20;fillColor=#60a917;strokeColor=#2D7600;fontColor=#ffffff;" vertex="1" parent="1">
          <mxGeometry x="436" y="174" width="270" height="45" as="geometry" />
        </mxCell>
        <mxCell id="i38Q_EET_aaeyMdn4X0I-17" value="How many questions?" style="text;html=1;align=left;verticalAlign=middle;whiteSpace=wrap;rounded=0;fontStyle=1;fontSize=16;" vertex="1" parent="1">
          <mxGeometry x="436" y="80" width="185" height="30" as="geometry" />
        </mxCell>
        <mxCell id="i38Q_EET_aaeyMdn4X0I-18" value="" style="rounded=0;whiteSpace=wrap;html=1;" vertex="1" parent="1">
          <mxGeometry x="436" y="120" width="270" height="40" as="geometry" />
        </mxCell>
        <mxCell id="V2c5M10AFD95ZUrolOOv-4" value="" style="ellipse;whiteSpace=wrap;html=1;aspect=fixed;" vertex="1" parent="1">
          <mxGeometry x="683.25" y="262" width="18.18181818181818" height="18.18181818181818" as="geometry" />
        </mxCell>
        <mxCell id="V2c5M10AFD95ZUrolOOv-5" value="" style="ellipse;whiteSpace=wrap;html=1;aspect=fixed;" vertex="1" parent="1">
          <mxGeometry x="704.8125" y="262" width="18.18181818181818" height="18.18181818181818" as="geometry" />
        </mxCell>
        <mxCell id="V2c5M10AFD95ZUrolOOv-6" value="" style="ellipse;whiteSpace=wrap;html=1;aspect=fixed;" vertex="1" parent="1">
          <mxGeometry x="726.375" y="262" width="18.18181818181818" height="18.18181818181818" as="geometry" />
        </mxCell>
        <mxCell id="V2c5M10AFD95ZUrolOOv-7" value="&amp;nbsp;Linear Algebra Quiz" style="text;html=1;align=left;verticalAlign=middle;whiteSpace=wrap;rounded=0;" vertex="1" parent="1">
          <mxGeometry x="390" y="262" width="130" height="30" as="geometry" />
        </mxCell>
        <mxCell id="V2c5M10AFD95ZUrolOOv-10" value="&lt;b&gt;&lt;font&gt;QUESTION #&amp;nbsp; of #&lt;/font&gt;&lt;/b&gt;" style="text;html=1;align=center;verticalAlign=middle;whiteSpace=wrap;rounded=0;fontSize=20;" vertex="1" parent="1">
          <mxGeometry x="485" y="310" width="170" height="30" as="geometry" />
        </mxCell>
        <mxCell id="V2c5M10AFD95ZUrolOOv-11" value="QUESTION GOES HERE" style="rounded=0;whiteSpace=wrap;html=1;" vertex="1" parent="1">
          <mxGeometry x="460" y="360" width="220" height="40" as="geometry" />
        </mxCell>
        <mxCell id="V2c5M10AFD95ZUrolOOv-17" value="STATS" style="rounded=0;whiteSpace=wrap;html=1;fontStyle=1;fontSize=18;fillColor=#0050ef;fontColor=#ffffff;strokeColor=#001DBC;" vertex="1" parent="1">
          <mxGeometry x="420" y="544" width="120" height="40" as="geometry" />
        </mxCell>
        <mxCell id="V2c5M10AFD95ZUrolOOv-19" value="HELP" style="rounded=0;whiteSpace=wrap;html=1;fontStyle=1;fontSize=18;fillColor=#647687;strokeColor=#314354;fontColor=#ffffff;" vertex="1" parent="1">
          <mxGeometry x="600" y="544" width="120" height="40" as="geometry" />
        </mxCell>
        <mxCell id="V2c5M10AFD95ZUrolOOv-20" value="PLAY AGAIN / END GAME" style="rounded=0;whiteSpace=wrap;html=1;fontSize=18;fontStyle=1;fillColor=#008a00;fontColor=#ffffff;strokeColor=#005700;" vertex="1" parent="1">
          <mxGeometry x="420" y="600.18" width="300" height="40" as="geometry" />
        </mxCell>
        <mxCell id="V2c5M10AFD95ZUrolOOv-21" value="NEXT QUESTION" style="rounded=0;whiteSpace=wrap;html=1;fontStyle=1;fontSize=18;fillColor=#1ba1e2;fontColor=#ffffff;strokeColor=#006EAF;" vertex="1" parent="1">
          <mxGeometry x="420" y="492" width="300" height="40" as="geometry" />
        </mxCell>
        <mxCell id="V2c5M10AFD95ZUrolOOv-23" value="" style="rounded=0;whiteSpace=wrap;html=1;fillColor=#fad7ac;strokeColor=#b46504;" vertex="1" parent="1">
          <mxGeometry x="30" y="380" width="300" height="170" as="geometry" />
        </mxCell>
        <mxCell id="V2c5M10AFD95ZUrolOOv-24" value="" style="ellipse;whiteSpace=wrap;html=1;aspect=fixed;" vertex="1" parent="1">
          <mxGeometry x="263.25" y="382" width="18.18181818181818" height="18.18181818181818" as="geometry" />
        </mxCell>
        <mxCell id="V2c5M10AFD95ZUrolOOv-25" value="" style="ellipse;whiteSpace=wrap;html=1;aspect=fixed;" vertex="1" parent="1">
          <mxGeometry x="284.8125" y="382" width="18.18181818181818" height="18.18181818181818" as="geometry" />
        </mxCell>
        <mxCell id="V2c5M10AFD95ZUrolOOv-26" value="" style="ellipse;whiteSpace=wrap;html=1;aspect=fixed;" vertex="1" parent="1">
          <mxGeometry x="306.375" y="382" width="18.18181818181818" height="18.18181818181818" as="geometry" />
        </mxCell>
        <mxCell id="V2c5M10AFD95ZUrolOOv-27" value="&amp;nbsp;Linear Algebra Quiz" style="text;html=1;align=left;verticalAlign=middle;whiteSpace=wrap;rounded=0;" vertex="1" parent="1">
          <mxGeometry x="30" y="380" width="120" height="30" as="geometry" />
        </mxCell>
        <mxCell id="V2c5M10AFD95ZUrolOOv-29" value="HINTS" style="text;html=1;align=center;verticalAlign=middle;whiteSpace=wrap;rounded=0;fontSize=16;fontStyle=1" vertex="1" parent="1">
          <mxGeometry x="150" y="420" width="60" height="30" as="geometry" />
        </mxCell>
        <mxCell id="V2c5M10AFD95ZUrolOOv-30" value="" style="rounded=0;whiteSpace=wrap;html=1;fillColor=#f9f7ed;strokeColor=#36393d;" vertex="1" parent="1">
          <mxGeometry x="30" y="620" width="300" height="170" as="geometry" />
        </mxCell>
        <mxCell id="V2c5M10AFD95ZUrolOOv-31" value="" style="ellipse;whiteSpace=wrap;html=1;aspect=fixed;" vertex="1" parent="1">
          <mxGeometry x="263.25" y="622" width="18.18181818181818" height="18.18181818181818" as="geometry" />
        </mxCell>
        <mxCell id="V2c5M10AFD95ZUrolOOv-32" value="" style="ellipse;whiteSpace=wrap;html=1;aspect=fixed;" vertex="1" parent="1">
          <mxGeometry x="284.8125" y="622" width="18.18181818181818" height="18.18181818181818" as="geometry" />
        </mxCell>
        <mxCell id="V2c5M10AFD95ZUrolOOv-33" value="" style="ellipse;whiteSpace=wrap;html=1;aspect=fixed;" vertex="1" parent="1">
          <mxGeometry x="306.375" y="622" width="18.18181818181818" height="18.18181818181818" as="geometry" />
        </mxCell>
        <mxCell id="V2c5M10AFD95ZUrolOOv-34" value="&amp;nbsp;Linear Algebra Quiz" style="text;html=1;align=left;verticalAlign=middle;whiteSpace=wrap;rounded=0;" vertex="1" parent="1">
          <mxGeometry x="30" y="620" width="120" height="30" as="geometry" />
        </mxCell>
        <mxCell id="V2c5M10AFD95ZUrolOOv-35" value="STATISTICS" style="text;html=1;align=center;verticalAlign=middle;whiteSpace=wrap;rounded=0;fontSize=16;fontStyle=1" vertex="1" parent="1">
          <mxGeometry x="130" y="660" width="100" height="30" as="geometry" />
        </mxCell>
        <mxCell id="V2c5M10AFD95ZUrolOOv-36" value="Question answered: #&lt;div&gt;&lt;br&gt;&lt;/div&gt;&lt;div&gt;Questions answered correctly: #&lt;/div&gt;" style="text;html=1;align=left;verticalAlign=top;whiteSpace=wrap;rounded=0;fontSize=14;" vertex="1" parent="1">
          <mxGeometry x="40" y="702" width="280" height="78" as="geometry" />
        </mxCell>
        <mxCell id="V2c5M10AFD95ZUrolOOv-37" value="You shouldn&#39;t need hints for this&lt;div&gt;&lt;font style=&quot;font-size: 9px;&quot;&gt;(but hint will go here)&lt;/font&gt;&lt;/div&gt;" style="text;html=1;align=center;verticalAlign=middle;whiteSpace=wrap;rounded=0;fontSize=14;fontStyle=1" vertex="1" parent="1">
          <mxGeometry x="50" y="450" width="260" height="80" as="geometry" />
        </mxCell>
        <mxCell id="JtFzMPvqlAdvDmIb0rAZ-1" value="" style="group;fillColor=#cce5ff;strokeColor=#36393d;labelBackgroundColor=default;" connectable="0" vertex="1" parent="1">
          <mxGeometry x="20" y="820" width="350" height="400" as="geometry" />
        </mxCell>
        <mxCell id="JtFzMPvqlAdvDmIb0rAZ-2" value="&amp;nbsp;Linear Algebra Quiz" style="text;html=1;align=left;verticalAlign=middle;whiteSpace=wrap;rounded=0;" vertex="1" parent="JtFzMPvqlAdvDmIb0rAZ-1">
          <mxGeometry width="350" height="41.379310344827594" as="geometry" />
        </mxCell>
        <mxCell id="JtFzMPvqlAdvDmIb0rAZ-3" value="" style="ellipse;whiteSpace=wrap;html=1;aspect=fixed;" vertex="1" parent="JtFzMPvqlAdvDmIb0rAZ-1">
          <mxGeometry x="325.9375" y="2.7586206896551726" width="18.18181818181818" height="18.18181818181818" as="geometry" />
        </mxCell>
        <mxCell id="JtFzMPvqlAdvDmIb0rAZ-4" value="" style="ellipse;whiteSpace=wrap;html=1;aspect=fixed;" vertex="1" parent="JtFzMPvqlAdvDmIb0rAZ-1">
          <mxGeometry x="300.78125" y="2.7586206896551726" width="18.18181818181818" height="18.18181818181818" as="geometry" />
        </mxCell>
        <mxCell id="JtFzMPvqlAdvDmIb0rAZ-5" value="" style="ellipse;whiteSpace=wrap;html=1;aspect=fixed;" vertex="1" parent="JtFzMPvqlAdvDmIb0rAZ-1">
          <mxGeometry x="275.625" y="2.7586206896551726" width="18.18181818181818" height="18.18181818181818" as="geometry" />
        </mxCell>
        <mxCell id="JtFzMPvqlAdvDmIb0rAZ-6" value="&lt;b&gt;Select a level&lt;/b&gt;" style="text;html=1;align=center;verticalAlign=middle;whiteSpace=wrap;rounded=0;fontSize=16;" vertex="1" parent="JtFzMPvqlAdvDmIb0rAZ-1">
          <mxGeometry x="9.458124999999999" y="190.00111807732497" width="324.84375" height="55.17241379310345" as="geometry" />
        </mxCell>
        <mxCell id="JtFzMPvqlAdvDmIb0rAZ-7" value="&lt;font style=&quot;color: rgb(0, 0, 0); font-size: 20px;&quot;&gt;MEDIUM&lt;/font&gt;" style="rounded=1;whiteSpace=wrap;html=1;fillColor=#95FF9C;strokeColor=#2D7600;fontColor=#ffffff;fontStyle=1" vertex="1" parent="JtFzMPvqlAdvDmIb0rAZ-1">
          <mxGeometry x="21.885" y="289.0049529780565" width="300" height="45" as="geometry" />
        </mxCell>
        <mxCell id="JtFzMPvqlAdvDmIb0rAZ-8" value="&lt;font style=&quot;color: rgb(0, 0, 0); font-size: 20px;&quot;&gt;&lt;b&gt;HARD&lt;/b&gt;&lt;/font&gt;" style="rounded=1;whiteSpace=wrap;html=1;fillColor=#FF7171;strokeColor=#B20000;fontColor=#ffffff;" vertex="1" parent="JtFzMPvqlAdvDmIb0rAZ-1">
          <mxGeometry x="21.875" y="344.82758620689657" width="300" height="45" as="geometry" />
        </mxCell>
        <mxCell id="JtFzMPvqlAdvDmIb0rAZ-9" value="&lt;font style=&quot;font-size: 20px;&quot;&gt;&lt;b style=&quot;&quot;&gt;&lt;font style=&quot;&quot;&gt;EASY&lt;/font&gt;&lt;/b&gt;&lt;/font&gt;" style="rounded=1;whiteSpace=wrap;html=1;fillColor=#FFFB92;fontColor=#000000;strokeColor=#B09500;verticalAlign=middle;" vertex="1" parent="JtFzMPvqlAdvDmIb0rAZ-1">
          <mxGeometry x="21.875" y="230.0022779519331" width="300" height="45" as="geometry" />
        </mxCell>
        <mxCell id="JtFzMPvqlAdvDmIb0rAZ-10" value="Linear Algebra Quiz" style="text;strokeColor=none;fillColor=none;html=1;align=center;verticalAlign=middle;whiteSpace=wrap;rounded=0;fontSize=18;fontStyle=1" vertex="1" parent="JtFzMPvqlAdvDmIb0rAZ-1">
          <mxGeometry x="34.5925" y="29.99931034482759" width="284.375" height="41.379310344827594" as="geometry" />
        </mxCell>
        <mxCell id="JtFzMPvqlAdvDmIb0rAZ-20" value="" style="rounded=0;whiteSpace=wrap;html=1;" vertex="1" parent="JtFzMPvqlAdvDmIb0rAZ-1">
          <mxGeometry x="35.005" y="159.99969696969694" width="280" height="40" as="geometry" />
        </mxCell>
        <mxCell id="JtFzMPvqlAdvDmIb0rAZ-19" value="How many questions?" style="text;html=1;align=left;verticalAlign=middle;whiteSpace=wrap;rounded=0;fontStyle=1;fontSize=16;" vertex="1" parent="JtFzMPvqlAdvDmIb0rAZ-1">
          <mxGeometry x="82.5" y="130" width="185" height="30" as="geometry" />
        </mxCell>
        <mxCell id="JtFzMPvqlAdvDmIb0rAZ-21" value="there will be some introduction text here" style="text;html=1;align=center;verticalAlign=middle;whiteSpace=wrap;rounded=0;" vertex="1" parent="JtFzMPvqlAdvDmIb0rAZ-1">
          <mxGeometry x="50" y="80" width="240" height="30" as="geometry" />
        </mxCell>
        <mxCell id="GXjdBrl1gfYz0ByrSoSD-1" value="" style="rounded=0;whiteSpace=wrap;html=1;" vertex="1" parent="1">
          <mxGeometry x="547.0000000000001" y="420" width="120" height="40" as="geometry" />
        </mxCell>
        <mxCell id="GXjdBrl1gfYz0ByrSoSD-2" value="&lt;b&gt;x&amp;nbsp; =&lt;/b&gt;" style="text;html=1;align=center;verticalAlign=middle;whiteSpace=wrap;rounded=0;fontSize=30;" vertex="1" parent="1">
          <mxGeometry x="467" y="425" width="60" height="30" as="geometry" />
        </mxCell>
      </root>
    </mxGraphModel>
  </diagram>
</mxfile>
